<?xml version="1.0" encoding="iso-8859-1"?>
<!-- Uploaded to: SVG Repo, www.svgrepo.com, Generator: SVG Repo Mixer Tools -->
<svg height="800px" width="800px" version="1.1" id="Layer_1" xmlns="http://www.w3.org/2000/svg" xmlns:xlink="http://www.w3.org/1999/xlink" 
	 viewBox="0 0 512 512" xml:space="preserve">
<g>
	<path style="fill:#E6E7E8;" d="M317.986,503.015H69.813c-8.049,0-14.574-6.525-14.574-14.574V50.512
		c0-8.049,6.525-14.574,14.574-14.574h371.566c8.049,0,14.574,6.525,14.574,14.574v314.537
		C455.953,441.245,394.184,503.015,317.986,503.015z"/>
	<path style="fill:#E6E7E8;" d="M441.614,503.015H69.578c-7.92,0-14.339-6.42-14.339-14.339V50.277
		c0-7.92,6.42-14.339,14.339-14.339h372.036c7.92,0,14.339,6.42,14.339,14.339v438.399
		C455.953,496.594,449.533,503.015,441.614,503.015z"/>
</g>
<g>
	<path style="fill:#D1D3D4;" d="M146.893,35.937l-12.521,33.035c0,4.964,4.023,8.986,8.986,8.986c4.963,0,8.986-4.022,8.986-8.986
		l12.521-33.035C164.865,35.937,146.893,35.937,146.893,35.937z"/>
	<path style="fill:#D1D3D4;" d="M192.36,35.937l-12.519,33.035c0,4.964,4.023,8.986,8.986,8.986s8.986-4.022,8.986-8.986
		l12.521-33.035C210.334,35.937,192.36,35.937,192.36,35.937z"/>
	<path style="fill:#D1D3D4;" d="M237.829,35.937l-12.521,33.035c0,4.964,4.023,8.986,8.986,8.986c4.963,0,8.986-4.022,8.986-8.986
		l12.521-33.035C255.801,35.937,237.829,35.937,237.829,35.937z"/>
	<path style="fill:#D1D3D4;" d="M101.424,35.937L88.904,68.973c0,4.964,4.023,8.986,8.986,8.986s8.986-4.022,8.986-8.986
		l12.521-33.035C119.397,35.937,101.424,35.937,101.424,35.937z"/>
	<path style="fill:#D1D3D4;" d="M419.702,35.937l-12.521,33.035c0,4.964,4.023,8.986,8.986,8.986s8.986-4.022,8.986-8.986
		l12.521-33.035C437.674,35.937,419.702,35.937,419.702,35.937z"/>
	<path style="fill:#D1D3D4;" d="M374.233,35.937l-12.521,33.035c0,4.964,4.023,8.986,8.986,8.986c4.963,0,8.986-4.022,8.986-8.986
		l12.521-33.035C392.206,35.937,374.233,35.937,374.233,35.937z"/>
	<path style="fill:#D1D3D4;" d="M283.297,35.937l-12.521,33.035c0,4.964,4.023,8.986,8.986,8.986s8.986-4.022,8.986-8.986
		l12.521-33.035C301.27,35.937,283.297,35.937,283.297,35.937z"/>
	<path style="fill:#D1D3D4;" d="M328.766,35.937l-12.521,33.035c0,4.964,4.023,8.986,8.986,8.986s8.986-4.022,8.986-8.986
		l12.521-33.035C346.738,35.937,328.766,35.937,328.766,35.937z"/>
</g>
<path style="fill:#BCBEC0;" d="M455.953,488.676v-123.81l-0.005,0.665L319.891,503.015h121.722
	C449.533,503.015,455.953,496.594,455.953,488.676z"/>
<path style="fill:#A7A9AC;" d="M187.515,465.592h-85.179c-2.455,0-4.445-1.99-4.445-4.445v-66.999c0-2.455,1.99-4.446,4.445-4.446
	h85.179c2.455,0,4.445,1.99,4.445,4.446v66.999C191.961,463.602,189.97,465.592,187.515,465.592z"/>
<path style="fill:#D1D3D4;" d="M362.656,407.978c-0.282,0-0.561-0.008-0.842-0.011c0.007,0.566,0.022,1.131,0.022,1.699
	c0,37.394-16.766,70.867-43.184,93.33c75.834-0.633,137.133-62.214,137.297-138.159C433.485,391.23,400.028,407.978,362.656,407.978
	z"/>
<path d="M102.336,380.716c-7.407,0-13.431,6.024-13.431,13.431v66.999c0,7.407,6.025,13.432,13.431,13.432h85.179
	c7.407,0,13.431-6.025,13.431-13.432v-66.999c0-7.407-6.025-13.431-13.431-13.431H102.336z M182.975,456.607h-76.098v-57.919h76.098
	V456.607z"/>
<path d="M455.953,137.183c-4.963,0-8.986,4.022-8.986,8.986v215.282c-21.534,23.898-52.076,37.54-84.313,37.54l-0.767-0.011
	c-2.474-0.037-4.741,0.935-6.445,2.648c-1.705,1.715-2.647,4.041-2.616,6.459l0.01,0.567c0.005,0.337,0.012,0.675,0.012,1.012
	c0,32.263-13.663,62.825-37.594,84.362H69.813c-3.08,0-5.588-2.507-5.588-5.587V50.512c0-3.082,2.507-5.588,5.588-5.588h19.092
	v24.049c0,4.964,4.023,8.986,8.986,8.986s8.986-4.022,8.986-8.986V44.923h27.496v24.049c0,4.964,4.023,8.986,8.986,8.986
	s8.986-4.022,8.986-8.986V44.923h27.495v24.049c0,4.964,4.023,8.986,8.986,8.986s8.986-4.022,8.986-8.986V44.923h27.496v24.049
	c0,4.964,4.023,8.986,8.986,8.986c4.963,0,8.986-4.022,8.986-8.986V44.923h27.496v24.049c0,4.964,4.023,8.986,8.986,8.986
	c4.963,0,8.986-4.022,8.986-8.986V44.923h27.496v24.049c0,4.964,4.023,8.986,8.986,8.986c4.963,0,8.986-4.022,8.986-8.986V44.923
	h27.496v24.049c0,4.964,4.023,8.986,8.986,8.986s8.986-4.022,8.986-8.986V44.923h27.496v24.049c0,4.964,4.023,8.986,8.986,8.986
	s8.986-4.022,8.986-8.986V44.923h16.225c3.082,0,5.588,2.507,5.588,5.588V75.08c0,4.964,4.023,8.986,8.986,8.986
	c4.963,0,8.986-4.022,8.986-8.986V50.512v-0.235c0-12.861-10.463-23.326-23.326-23.326h-0.235h-16.225V8.986
	c0-4.964-4.023-8.986-8.986-8.986s-8.986,4.022-8.986,8.986v17.965h-27.496V8.986c0-4.964-4.023-8.986-8.986-8.986
	s-8.986,4.022-8.986,8.986v17.965h-27.496V8.986c0-4.964-4.023-8.986-8.986-8.986c-4.963,0-8.986,4.022-8.986,8.986v17.965H288.75
	V8.986c0-4.964-4.023-8.986-8.986-8.986c-4.963,0-8.986,4.022-8.986,8.986v17.965h-27.496V8.986c0-4.964-4.023-8.986-8.986-8.986
	c-4.963,0-8.986,4.022-8.986,8.986v17.965h-27.496V8.986c0-4.964-4.023-8.986-8.986-8.986s-8.986,4.022-8.986,8.986v17.965h-27.496
	V8.986c0-4.964-4.023-8.986-8.986-8.986s-8.986,4.022-8.986,8.986v17.965h-27.495V8.986c0-4.964-4.023-8.986-8.986-8.986
	s-8.986,4.022-8.986,8.986v17.965H69.813h-0.235c-12.861,0-23.324,10.463-23.324,23.326v0.235v437.929v0.235
	c0,12.861,10.463,23.324,23.324,23.324h0.235h248.174h123.627c12.861,0,23.326-10.462,23.326-23.324V365.048V146.169
	C464.939,141.207,460.916,137.183,455.953,137.183z M370.633,416.723c27.252-1.649,53.114-11.708,74.199-28.615
	c-4.667,25.486-16.884,48.964-35.529,67.716c-18.574,18.68-41.875,31.013-67.215,35.868
	C359.11,470.395,369.16,444.248,370.633,416.723z M446.967,488.676c0,2.951-2.401,5.352-5.353,5.352H388.35
	c24.689-13.523,45.094-33.928,58.617-58.617L446.967,488.676L446.967,488.676z"/>
<path d="M416.168,151.687H97.891c-4.963,0-8.986,4.022-8.986,8.986c0,4.964,4.023,8.986,8.986,8.986h318.277
	c4.963,0,8.986-4.022,8.986-8.986C425.155,155.709,421.131,151.687,416.168,151.687z"/>
<path d="M416.168,192.544H97.891c-4.963,0-8.986,4.022-8.986,8.986c0,4.964,4.023,8.986,8.986,8.986h318.277
	c4.963,0,8.986-4.022,8.986-8.986C425.155,196.566,421.131,192.544,416.168,192.544z"/>
<path d="M416.168,233.401H97.891c-4.963,0-8.986,4.022-8.986,8.986c0,4.964,4.023,8.986,8.986,8.986h318.277
	c4.963,0,8.986-4.022,8.986-8.986C425.155,237.423,421.131,233.401,416.168,233.401z"/>
<path d="M416.168,274.257H97.891c-4.963,0-8.986,4.022-8.986,8.986s4.023,8.986,8.986,8.986h318.277
	c4.963,0,8.986-4.022,8.986-8.986S421.131,274.257,416.168,274.257z"/>
<path d="M425.155,324.1c0-4.964-4.023-8.986-8.986-8.986H97.891c-4.963,0-8.986,4.022-8.986,8.986s4.023,8.986,8.986,8.986h318.277
	C421.131,333.086,425.155,329.064,425.155,324.1z"/>
<circle cx="455.954" cy="110.361" r="9.792"/>
</svg>