<?xml version="1.0" encoding="utf-8"?>
<!-- Generator: Adobe Illustrator 19.2.1, SVG Export Plug-In . SVG Version: 6.00 Build 0)  -->
<svg version="1.1" id="layer" xmlns="http://www.w3.org/2000/svg" xmlns:xlink="http://www.w3.org/1999/xlink" x="0px" y="0px"
	 viewBox="0 0 652 652" style="enable-background:new 0 0 652 652;" xml:space="preserve">
<style type="text/css">
	.st0{fill:#999999;}
</style>
<path class="st0" d="M37.5,290.7c1.4,0,4.6-0.3,9.7-0.9c5.1-0.6,9.5-0.9,13.1-0.9c5.7,0,10.6,0.6,14.7,1.7c4.1,1.1,8,3,11.4,5.5
	c5,3.6,8.9,8,11.5,13.2c2.7,5.2,4,10.7,4,16.7c0,10.3-4,18.9-11.9,25.7c-8,6.8-18.2,10.2-30.6,10.2c-2.3,0-5.5-0.1-9.7-0.3
	c-4.2-0.2-7.2-0.3-9.2-0.3c-2.6,0-5.4,0.1-8.2,0.3c-2.9,0.2-4.4,0.3-4.6,0.3c-0.5,0-0.8-0.1-0.9-0.2c-0.1-0.1-0.2-0.4-0.2-0.7
	c0-0.7,0.8-1.1,2.2-1.2c1.4-0.1,2.5-0.4,3.2-0.9c0.9-0.8,1.6-2.4,1.9-4.9c0.4-2.5,0.6-6.9,0.6-13.2c0-1.6,0-4.8-0.1-9.4
	c0-4.7-0.1-8.5-0.1-11.6c0-11.1-0.2-18-0.6-20.8c-0.4-2.8-1-4.5-2.1-5.1c-0.8-0.5-1.9-0.9-3.2-1.1c-1.3-0.2-2-0.7-2-1.4
	c0-0.4,0.1-0.7,0.4-0.9c0.3-0.2,0.8-0.2,1.5-0.2h0.8c0.8,0,2.1,0.1,3.8,0.2C35.1,290.6,36.5,290.7,37.5,290.7 M44.5,322.7v7.5
	c0,7.8,0.1,13.7,0.2,17.6c0.1,3.9,0.4,6.2,0.7,6.9c0.6,1.2,2.3,2.2,5.2,3c2.9,0.8,6.4,1.2,10.4,1.2c9.1,0,16.2-3,21.5-8.9
	c5.3-6,8-14,8-24.1c0-9.9-2.9-18.1-8.8-24.3c-5.9-6.3-13.6-9.4-23-9.4c-3.2,0-6,0.3-8.5,0.9c-2.5,0.6-4,1.3-4.5,2.1
	c-0.3,0.5-0.6,3.2-0.8,8.2C44.7,308.1,44.5,314.6,44.5,322.7 M168.3,288.8c-11.4,0.2-23.2,0.5-35.5,0.8c-3.2,0.1-5.1,0.2-5.6,0.2
	c-4,0-7.8-0.3-11.5-0.8c-0.6-0.1-0.9-0.1-1-0.2c-0.3,0-0.6,0.1-0.8,0.4c-0.2,0.3-0.3,0.6-0.3,1c0,0.7,0.3,1.3,1,1.6
	c0.7,0.3,1.9,0.5,3.7,0.5c1.3,0.6,2.1,1.7,2.5,3.4c0.4,1.7,0.6,5.9,0.6,12.6v2.3c0,15.3-0.1,26.7-0.4,34.3c-0.3,7.5-0.7,12-1.3,13.5
	c-0.4,0.4-1.5,0.8-3.4,1.1c-1.9,0.3-2.8,0.7-2.8,1.2c0,0.7,0,1,0.1,1.2c0.1,0.1,0.2,0.2,0.5,0.2c0.2,0,0.7,0,1.5-0.1
	c8.3-0.5,17.7-0.8,28-0.8c4.8,0,9.1,0.1,13,0.2c3.8,0.1,7.6,0.3,11.2,0.6c1.5-3.3,2.7-6.5,3.6-9.6c0.9-3.1,1.3-5.4,1.3-6.9
	c0-0.4-0.1-0.7-0.2-0.8c-0.1-0.1-0.3-0.1-0.6-0.1c-0.5,0-0.9,0.5-1.3,1.6c-0.5,1.1-0.9,2.1-1.4,2.9c-1.9,3.2-4.7,5.5-8.3,6.9
	c-3.6,1.4-8.7,2.1-15.2,2.1c-2,0-4.1-0.1-6.3-0.3c-2.2-0.2-4.6-0.5-7.3-0.9c-0.2-3-0.3-5.9-0.5-8.8c-0.1-2.9-0.2-5.8-0.2-8.8v-9.5
	v-0.7c0-1.4,0.3-2.3,1-2.5c0.7-0.3,2.6-0.4,5.7-0.4h6.1c6.3,0,10.3,0.3,12,1c1.7,0.7,2.7,2,3,4c0.5,1,0.8,2.2,1.2,3.4
	c0.3,1.3,0.7,1.9,1.1,1.9c0.5,0,0.8-0.2,1-0.4c0.2-0.2,0.3-0.6,0.3-1.1c0-0.1-0.1-1.3-0.3-3.4c-0.2-2.2-0.3-4.3-0.3-6.4
	c0-1.9,0.1-4,0.3-6.2c0.2-2.2,0.3-3.4,0.3-3.6c0-0.4-0.1-0.6-0.2-0.8c-0.1-0.1-0.4-0.2-0.7-0.2c-0.7,0-1.1,0.8-1.3,2.4
	c-0.2,1.6-0.7,2.8-1.3,3.6c-1.1,0.9-2.9,1.4-5.4,1.8c-2.5,0.3-6.6,0.5-12.3,0.5H137c-2.5,0-4-0.1-4.6-0.4c-0.6-0.2-0.9-1-0.9-2.2
	v-1.3c0-3.6,0.1-7.4,0.2-11.5c0.1-4,0.4-8.6,0.7-13.8c3.2-0.4,5.9-0.7,8-0.9c2.1-0.2,4.1-0.2,5.8-0.2c6.6,0,11.3,0.4,13.9,1.2
	c2.7,0.8,4,2.1,4,4c0,0.8-0.1,1.8-0.4,2.9c-0.3,1.1-0.4,1.7-0.4,1.9c0,0.2,0.1,0.4,0.4,0.6c0.3,0.2,0.6,0.2,1,0.2
	c0.8,0,1.4-1.8,1.9-5.3C167.1,294.4,167.7,291.4,168.3,288.8 M188.3,361c0.1-0.2,0.2-0.3,0.4-0.5c0.2-0.2,0.4-0.2,0.6-0.2
	c0.4,0,2.8,0.5,7.1,1.3c4.3,0.9,8.3,1.3,12.1,1.3c7.2,0,12.9-1.8,17.3-5.4c4.4-3.6,6.6-8.4,6.6-14.2c0-4.6-1.3-8.5-4-11.9
	c-2.7-3.3-6.9-6.3-12.8-8.9c-1-0.4-2.5-1.1-4.4-1.9c-10.8-4.6-16.3-10-16.3-16.4c0-3.9,1.4-7.1,4.1-9.7c2.8-2.6,6.2-3.8,10.3-3.8
	c3.7,0,7.1,0.7,10,2.1c2.9,1.4,5.1,3.3,6.5,5.7c0.9,1.5,1.5,3,1.9,4.5c0.4,1.6,0.7,2.3,0.8,2.3c0.8,0,1.2,0,1.3-0.1
	c0.1-0.1,0.2-0.2,0.2-0.5c0-0.2-0.1-1.1-0.4-2.7c-0.3-1.6-0.4-3.2-0.4-4.6c0-2.6,0.3-5.1,0.8-7.6c0.1-0.4,0.2-0.7,0.2-0.7
	c0-0.3-0.1-0.5-0.2-0.6c-0.1-0.1-0.3-0.2-0.5-0.3c-0.2,0-0.8,0.3-1.8,0.8c-1.1,0.6-2,0.8-2.9,0.8c-0.8,0-2.7-0.3-5.8-1
	c-3.1-0.7-5.8-1-8.1-1c-7.2,0-13.1,1.9-17.6,5.8c-4.5,3.9-6.8,8.8-6.8,14.7c0,4.2,1.2,7.7,3.5,10.7c2.4,3,6.2,5.6,11.6,8.1
	c1.3,0.6,3.1,1.4,5.6,2.4c10.9,4.7,16.4,10.3,16.4,16.9c0,4.1-1.3,7.3-3.9,9.6c-2.6,2.3-6.2,3.4-10.8,3.4c-4.4,0-8.7-0.8-12.8-2.5
	c-4.1-1.6-6.8-3.6-8.2-5.9c-0.9-1.5-1.9-4.3-3-8.6c-0.6,0-1.1,0.1-1.4,0.2c-0.4,0.1-0.6,0.3-0.6,0.5c0,0.1,0.5,2.1,1.4,6
	c0.9,3.9,1.4,7.7,1.4,11.5v1.6h1.9L188.3,361 M272.3,288.9c-1.1,0-3.4,0.2-7,0.5c-3.6,0.3-6.6,0.5-9,0.5c-1.4,0-3.5-0.2-6.1-0.5
	c-2.6-0.3-4.6-0.5-5.8-0.5h-0.6c-0.5,0-0.9,0.1-1.1,0.4c-0.2,0.3-0.3,0.7-0.3,1.3c0,0.7,1.1,1.1,3.3,1.2c2.2,0.1,3.9,0.6,4.9,1.3
	c1.1,0.8,1.9,3.1,2.3,6.6c0.4,3.6,0.7,12.1,0.7,25.6v5.2c0,9.7-0.1,16.1-0.3,19.3c-0.2,3.1-0.7,5.3-1.3,6.6
	c-0.5,0.8-1.3,1.3-2.6,1.7c-1.3,0.4-3.1,0.5-5.6,0.5c-0.5,0-0.9,0.1-1.1,0.4c-0.2,0.3-0.3,0.9-0.3,1.7c0,0.5,0.1,0.8,0.2,1
	c0.1,0.1,0.3,0.2,0.5,0.2c1.2,0,3.2-0.1,6.1-0.3c2.9-0.2,5.2-0.3,7-0.3c2.5,0,5.5,0.1,9,0.3c3.5,0.2,5.8,0.3,6.8,0.3h0.6
	c0.6,0,0.9-0.1,1.1-0.2c0.2-0.2,0.2-0.5,0.2-0.9c0-0.8-0.3-1.4-0.9-1.7c-0.6-0.3-2.2-0.4-4.9-0.4c-1.7,0-2.8-1-3.5-3
	c-0.7-2-1-5.6-1-10.8c0-1,0-2.9,0.1-5.7c0-2.8,0.1-5.1,0.1-7c0-14.7,0.2-24.7,0.6-29.9c0.4-5.2,1.1-8.3,2.2-9.2
	c1-0.8,2.4-1.5,4.4-1.8c2-0.4,2.9-0.9,2.9-1.6c0-0.3-0.1-0.6-0.2-0.7C273.5,289,273.1,288.9,272.3,288.9 M302.4,289.3
	c-0.4,0-1.1,0-1.9,0.1c-3.4,0.2-5.6,0.3-6.9,0.3c-3.7,0-7.6-0.1-11.6-0.4c-0.8,0-1.4-0.1-1.6-0.1c-0.6,0-0.9,0-1.1,0.1
	c-0.2,0.1-0.2,0.3-0.2,0.5c0,0.4,0.9,0.7,2.7,0.9c1.8,0.2,3.5,0.6,5.1,1.1c2,0.9,3.5,2.5,4.3,4.6c0.8,2.1,1.2,5.7,1.2,10.8
	c0,3.7-0.1,8.3-0.3,13.8c-0.2,5.5-0.6,11.2-1,17.4c0,0.5-0.1,1.2-0.1,2.1c-0.7,9.2-1.7,14.6-3.2,16.2c-1.2,0.8-2.9,1.6-5.2,2.2
	c-2.3,0.7-3.4,1.4-3.4,2.1c0,0.4,0.1,0.7,0.1,0.7c0,0.1,0.1,0.1,0.2,0.1c0.1,0,1.5-0.1,4.2-0.3c2.7-0.2,5.4-0.3,8.1-0.3
	c2.7,0,5.5,0.1,8.3,0.3c2.9,0.2,4.4,0.3,4.6,0.3c0.3,0,0.6-0.1,0.7-0.2c0.1-0.1,0.2-0.3,0.2-0.6c0-0.6-0.7-1.1-2.1-1.5
	c-1.2-0.3-2.3-0.7-3.2-1c-2.2-0.3-3.6-1.2-4.4-2.5c-0.8-1.3-1.2-4.6-1.2-9.7v-1.1c0-6,0.2-12.7,0.5-20.2c0.3-7.4,0.8-15.2,1.5-23.4
	l0.6-0.1c8.3,16,14.4,27.9,18.3,35.8c4,7.8,6.3,12.8,7.1,14.8c0.9,2,1.7,4.3,2.5,6.7c0.6,1.8,1.1,2.7,1.7,2.7c0.6,0,1.3-1.1,2.1-3.4
	c0.9-2.6,1.9-4.9,2.8-7c2.4-5.6,5.8-12.8,10.3-21.6c4.4-8.8,9.4-18.1,14.8-27.9l0.5,0.1c0.1,5.6,0.2,10.6,0.3,14.9
	c0.1,4.3,0.1,7.9,0.1,10.9v5.3v10.2c0,5.4-0.3,9.1-1,11c-0.7,2-2,3.5-3.9,4.5c-1.4,0.5-2.8,0.9-4.3,1c-1.5,0.1-2.3,0.5-2.3,1.1
	c0,0.5,0.1,0.8,0.2,1c0.1,0.2,0.4,0.3,0.7,0.3c0.3,0,1,0,2.2-0.1c5.4-0.4,10.7-0.6,15.7-0.6c3.1,0,6.4,0.2,9.9,0.6
	c0.9,0.1,1.5,0.1,1.7,0.1c0.3,0,0.6-0.1,0.7-0.4c0.2-0.3,0.3-0.6,0.3-1.1c0-1-1.1-1.7-3.3-2c-2.2-0.3-3.7-0.8-4.4-1.4
	c-1.2-1.7-2-6-2.5-13c-0.5-7-0.8-18.8-0.8-35.4c0-8,0.6-12.8,1.8-14.4c1.2-1.6,3.7-2.3,7.6-2.3c0.5,0,1-0.1,1.2-0.4
	c0.3-0.3,0.4-0.7,0.4-1.3c0-0.3-0.1-0.6-0.3-0.8c-0.2-0.2-0.5-0.3-1-0.3c-0.2,0-0.5,0-1,0.1c-3.1,0.3-6.2,0.4-9.3,0.4
	c-1.7,0-3.1,0-4.1-0.1c-1-0.1-2-0.2-2.9-0.3c-11.7,23.3-19.3,38.3-22.9,45.1c-3.6,6.8-5.6,10.2-6,10.2c-0.3,0-1-1.1-2.1-3.2
	c-0.7-1.5-1.3-2.8-1.8-3.8c-1.4-2.7-3.5-6.7-6.4-12C311.1,309.7,305.3,297.6,302.4,289.3 M387.1,324.9c0-10.3,3.8-19.1,11.5-26.3
	c7.6-7.2,16.9-10.8,27.9-10.8c10.8,0,19.8,3.5,27,10.4c7.2,7,10.8,15.7,10.8,26.2c0,10.9-3.7,20.1-11,27.5c-7.3,7.4-16.5,11-27.5,11
	c-11,0-20.1-3.7-27.5-11C390.8,344.7,387.1,335.6,387.1,324.9 M423.2,292.2c-7.8,0-14,2.5-18.9,7.6c-4.8,5.1-7.2,11.7-7.2,20
	c0,4.3,0.7,8.6,2.2,13c1.4,4.4,3.5,8.4,6,12c3.1,4.4,6.8,7.7,11,10c4.2,2.3,8.8,3.5,13.6,3.5c7.3,0,13.2-2.6,17.7-7.9
	c4.5-5.3,6.7-12.2,6.7-20.8c0-4.6-0.8-9.2-2.5-13.9c-1.6-4.7-3.9-8.8-6.7-12.3c-3-3.7-6.3-6.4-10.1-8.4
	C431.4,293.2,427.4,292.2,423.2,292.2 M487.9,303.5c1.2,1.2,6.9,6.3,17,15.4c10.1,9.1,19.6,17.9,28.5,26.3c4.2,4,7.7,7.8,10.4,11.4
	c2.7,3.6,4.3,5.4,4.7,5.4c0.6,0,1-0.1,1.1-0.2c0.2-0.2,0.3-0.5,0.3-0.9v-1.3c0-1.2-0.1-4.1-0.2-9c-0.1-4.8-0.2-9.1-0.2-12.8v-14.2
	c0-12.1,0.2-20.2,0.6-24.1c0.4-4,1.2-6.5,2.2-7.4c0.7-0.5,1.8-0.8,3.2-1c1.4-0.2,2.1-0.5,2.1-1c0-0.5-0.1-0.8-0.3-1
	c-0.2-0.2-0.6-0.3-1.3-0.3c-0.1,0-1.1,0.1-2.9,0.3c-1.9,0.2-3.7,0.3-5.4,0.3c-1.8,0-3.9-0.1-6.3-0.3c-2.4-0.2-3.9-0.3-4.4-0.3
	c-0.4,0-0.7,0-0.8,0.1c-0.1,0.1-0.1,0.2-0.1,0.4c0,0.5,0.7,0.9,2.2,1.2s2.6,0.8,3.6,1.6c1.7,0.9,2.8,3.2,3.4,7.1
	c0.6,3.8,1,12.2,1,25c0,3.5,0,6.7-0.1,9.3c0,2.7-0.1,5.4-0.2,8.2l-1,0.6c-15.6-13.5-27.6-24.2-35.8-32.2c-8.3-8-14.8-15.1-19.6-21.2
	c-1.1,0.2-2.2,0.3-3.4,0.4c-1.2,0.1-2.8,0.1-4.9,0.1c-1.3,0-2.8-0.1-4.3-0.3c-1.6-0.2-2.5-0.3-2.7-0.3c-0.3,0-0.6,0.2-0.8,0.5
	c-0.2,0.3-0.3,0.7-0.3,1.2c0,0.6,1,1.2,3.1,1.8c2.1,0.6,3.6,1.2,4.5,1.9c1.2,1.3,2,4.2,2.5,8.5c0.5,4.4,0.7,14.5,0.7,30.4
	c0,1.8-0.1,4.4-0.2,7.8c-0.1,3.5-0.2,6-0.2,7.7c0,0.8,0,1.9,0.1,3.2c0,1.3,0.1,2.1,0.1,2.5c0,1.7-0.2,2.9-0.6,3.6
	c-0.4,0.7-1.1,1.2-2.3,1.5c-0.8,0.3-1.8,0.5-3,0.7c-1.4,0.3-2.1,0.7-2.1,1.3c0,0.2,0.1,0.4,0.2,0.5c0.1,0.1,0.5,0.1,1,0.1
	c0.3,0,2-0.1,4.9-0.3c2.9-0.2,5.6-0.3,8.1-0.3c1.5,0,3.2,0.1,5.3,0.3c2.1,0.2,3.4,0.3,4,0.3c0.4,0,0.6,0,0.7-0.1
	c0.1,0,0.1-0.1,0.1-0.2c0-1.1-1.5-1.8-4.4-2.2c-2.9-0.3-4.9-1-6-2c-1-0.9-1.6-3.5-2-7.9c-0.3-4.4-0.5-14.1-0.5-29.1V304L487.9,303.5
	 M622.4,288.8c-11.4,0.2-23.2,0.5-35.5,0.8c-3.2,0.1-5.1,0.2-5.6,0.2c-4,0-7.8-0.3-11.5-0.8c-0.6-0.1-0.9-0.1-1-0.2
	c-0.3,0-0.6,0.1-0.8,0.4c-0.2,0.3-0.3,0.6-0.3,1c0,0.7,0.3,1.3,1,1.6c0.7,0.3,1.9,0.5,3.7,0.5c1.3,0.6,2.1,1.7,2.5,3.4
	c0.4,1.7,0.6,5.9,0.6,12.6v2.3c0,15.3-0.1,26.7-0.4,34.3c-0.3,7.5-0.7,12-1.3,13.5c-0.4,0.4-1.5,0.8-3.4,1.1
	c-1.9,0.3-2.8,0.7-2.8,1.2c0,0.7,0,1,0.1,1.2c0.1,0.1,0.2,0.2,0.5,0.2c0.2,0,0.7,0,1.5-0.1c8.3-0.5,17.7-0.8,28-0.8
	c4.8,0,9.1,0.1,13,0.2c3.8,0.1,7.6,0.3,11.2,0.6c1.5-3.3,2.7-6.5,3.6-9.6c0.9-3.1,1.3-5.4,1.3-6.9c0-0.4-0.1-0.7-0.2-0.8
	c-0.1-0.1-0.3-0.1-0.6-0.1c-0.5,0-0.9,0.5-1.3,1.6c-0.5,1.1-0.9,2.1-1.4,2.9c-1.9,3.2-4.7,5.5-8.3,6.9c-3.6,1.4-8.7,2.1-15.2,2.1
	c-2,0-4.1-0.1-6.3-0.3c-2.2-0.2-4.6-0.5-7.3-0.9c-0.2-3-0.3-5.9-0.5-8.8c-0.1-2.9-0.2-5.8-0.2-8.8v-9.5v-0.7c0-1.4,0.3-2.3,1-2.5
	c0.7-0.3,2.6-0.4,5.7-0.4h6.1c6.3,0,10.3,0.3,12,1c1.7,0.7,2.7,2,3,4c0.5,1,0.9,2.2,1.2,3.4c0.3,1.3,0.7,1.9,1.1,1.9
	c0.5,0,0.8-0.2,1-0.4c0.2-0.2,0.3-0.6,0.3-1.1c0-0.1-0.1-1.3-0.3-3.4c-0.2-2.2-0.3-4.3-0.3-6.4c0-1.9,0.1-4,0.3-6.2
	c0.2-2.2,0.3-3.4,0.3-3.6c0-0.4-0.1-0.6-0.2-0.8c-0.1-0.1-0.4-0.2-0.7-0.2c-0.7,0-1.1,0.8-1.3,2.4c-0.2,1.6-0.7,2.8-1.3,3.6
	c-1.1,0.9-2.9,1.4-5.4,1.8c-2.5,0.3-6.6,0.5-12.3,0.5h-4.7c-2.5,0-4.1-0.1-4.6-0.4c-0.6-0.2-0.9-1-0.9-2.2v-1.3
	c0-3.6,0.1-7.4,0.2-11.5c0.1-4,0.4-8.6,0.7-13.8c3.2-0.4,5.9-0.7,8-0.9c2.1-0.2,4.1-0.2,5.8-0.2c6.6,0,11.3,0.4,13.9,1.2
	c2.7,0.8,4,2.1,4,4c0,0.8-0.1,1.8-0.4,2.9c-0.3,1.1-0.4,1.7-0.4,1.9c0,0.2,0.1,0.4,0.4,0.6c0.3,0.2,0.6,0.2,1,0.2
	c0.8,0,1.4-1.8,1.9-5.3C621.2,294.4,621.7,291.4,622.4,288.8"/>
</svg>
