<?xml version="1.0" encoding="iso-8859-1"?>
<!-- Uploaded to: SVG Repo, www.svgrepo.com, Generator: SVG Repo Mixer Tools -->
<svg xmlns="http://www.w3.org/2000/svg" xmlns:xlink="http://www.w3.org/1999/xlink" version="1.1" id="Layer_1"  viewBox="0 0 427.988 427.988" xml:space="preserve" width="512" height="512">
<g>
	<path style="fill:#77BC1F;" d="M368.578,162.501H86.342c-14.695,0-26.611,11.914-26.611,26.612c0,4.284,1.02,8.328,2.818,11.913   c7.504,15.901,38.953,53.135,55.873,66.726c0.377,0.311,0.77,0.604,1.154,0.906c0.072,0.057,0.148,0.12,0.223,0.174l0,0   c10.061,7.82,22.691,12.49,36.42,12.49h212.359c32.811,0,59.41-26.6,59.41-59.409C427.988,189.1,401.389,162.501,368.578,162.501z"/>
	<g>
		<path style="fill:#218649;" d="M10.887,162.215c1.875,29.537,26.41,52.917,56.422,52.917h212.85    c29.06,0,52.617-23.559,52.617-52.619L10.887,162.215z"/>
		<path style="fill:#77BC1F;" d="M368.578,162.501H86.342c-14.695,0-26.611,11.914-26.611,26.612c0,4.284,1.02,8.328,2.818,11.913    c7.504,15.901,38.953,53.135,55.873,66.726c0.377,0.311,0.77,0.604,1.154,0.906c0.072,0.057,0.148,0.12,0.223,0.174l0,0    c10.061,7.82,22.691,12.49,36.42,12.49h212.359c32.811,0,59.41-26.6,59.41-59.409C427.988,189.1,401.389,162.501,368.578,162.501z    "/>
		<path style="opacity:0.3;fill:#222222;" d="M86.342,162.501c-14.695,0-26.611,11.914-26.611,26.612    c0,4.284,1.02,8.328,2.818,11.913c7.504,15.901,38.953,53.135,55.873,66.726c0.377,0.311,0.77,0.604,1.154,0.906    c0.072,0.057,0.148,0.12,0.223,0.174l0,0c10.061,7.82,22.691,12.49,36.42,12.49h91.484V162.501H86.342z"/>
		<path style="fill:#218649;" d="M10.887,162.215c1.875,29.537,26.41,52.917,56.422,52.917h212.85    c29.06,0,52.617-23.559,52.617-52.619L10.887,162.215z"/>
		<path style="opacity:0.2;fill:#222222;" d="M10.887,162.215c1.875,29.537,26.41,52.917,56.422,52.917h180.395v-52.768    L10.887,162.215z"/>
	</g>
	<g>
		<path style="opacity:0.3;fill:#222222;" d="M182.576,225.636l-63.318-63.32l-73.137-0.067c-0.016,3.469,0.1,6.594,0.367,9.069    c0.695,7.287,3.832,14.386,9.414,19.967l80.512,80.514c5.982,5.982,13.707,9.156,21.537,9.524h3.094    c7.828-0.37,15.551-3.544,21.529-9.522C195.322,259.052,195.326,238.384,182.576,225.636z"/>
		<path style="fill:#95D600;" d="M48.691,320.305c-0.643,0-1.293-0.043-1.947-0.13c-7.945-1.065-13.523-8.369-12.457-16.315    l21.914-163.524c1.064-7.945,8.358-13.517,16.315-12.46c7.947,1.065,13.525,8.37,12.459,16.315L63.059,307.716    C62.082,315.007,55.85,320.305,48.691,320.305z"/>
		<path style="opacity:0.3;fill:#222222;" d="M72.516,127.876c-7.957-1.057-15.25,4.515-16.315,12.46l-5.834,43.543    c1.453,2.654,3.285,5.156,5.535,7.405l20.07,20.072l9.002-67.166C86.041,136.246,80.463,128.941,72.516,127.876z"/>
		<path style="fill:#218649;" d="M188.586,219.625L80.928,111.966c-5.711-5.711-14.969-5.711-20.68-0.003    c-1.658,1.659-2.82,3.621-3.514,5.704l-0.014,0.004c-3.266,9.071-5.514,35.769-4.223,47.635    c0.695,7.288,3.832,14.388,9.414,19.969l80.514,80.514c12.746,12.747,33.414,12.747,46.158,0.002    C201.334,253.042,201.336,232.373,188.586,219.625z"/>
		<g>
			<path style="fill:#95D600;" d="M48.674,320.304H14.516C6.5,320.304,0,313.804,0,305.788c0-8.017,6.5-14.516,14.516-14.516h34.158     c8.016,0,14.516,6.499,14.516,14.516C63.189,313.804,56.689,320.304,48.674,320.304z"/>
		</g>
		<rect x="17.004" y="291.273" style="fill:#218649;" width="15" height="29.033"/>
	</g>
	<g>
		<path style="opacity:0.3;fill:#222222;" d="M245.93,280.341c-5.531,0-10.813-3.176-13.238-8.543l-22.984-50.884    c-3.297-7.307-0.051-15.903,7.256-19.203c7.305-3.3,15.902-0.054,19.203,7.253l22.984,50.885    c3.299,7.306,0.051,15.902-7.254,19.203C249.957,279.927,247.926,280.341,245.93,280.341z"/>
		<path style="fill:#95D600;" d="M250.805,275.468c-5.531,0-10.813-3.177-13.238-8.544l-22.983-50.883    c-3.299-7.308-0.053-15.904,7.254-19.204c7.305-3.3,15.902-0.054,19.203,7.253l22.984,50.884    c3.299,7.307,0.051,15.903-7.254,19.204C254.832,275.053,252.803,275.468,250.805,275.468z"/>
		<path style="opacity:0.3;fill:#222222;" d="M259.15,259.849l-22.984-50.885c-3.301-7.307-11.898-10.553-19.203-7.253    c-0.547,0.245-1.061,0.53-1.561,0.833c-2.389,3.951-2.861,8.971-0.818,13.497l22.983,50.883c2.426,5.367,7.707,8.544,13.238,8.544    c1.998,0,4.027-0.415,5.967-1.29c0.545-0.247,1.061-0.532,1.561-0.834C260.721,269.393,261.193,264.374,259.15,259.849z"/>
		<path style="fill:#95D600;" d="M208.648,320.306c-0.945,0-1.904-0.093-2.867-0.284c-7.859-1.576-12.955-9.225-11.381-17.086    l19.18-95.722c1.574-7.86,9.23-12.948,17.084-11.382c7.859,1.576,12.957,9.225,11.381,17.084l-19.178,95.724    C221.484,315.536,215.424,320.306,208.648,320.306z"/>
		<g>
			<path style="fill:#95D600;" d="M208.635,320.304h-34.158c-8.016,0-14.516-6.5-14.516-14.516c0-8.017,6.5-14.516,14.516-14.516     h34.158c8.016,0,14.516,6.499,14.516,14.516C223.15,313.804,216.65,320.304,208.635,320.304z"/>
		</g>
		<rect x="176.965" y="291.273" style="fill:#218649;" width="15" height="29.033"/>
	</g>
	<g>
		<path style="opacity:0.3;fill:#222222;" d="M324.81,280.341c-5.529,0-10.813-3.176-13.238-8.543l-22.982-50.884    c-3.301-7.307-0.053-15.903,7.254-19.203c7.303-3.3,15.902-0.054,19.203,7.253l22.984,50.885    c3.299,7.306,0.051,15.902-7.254,19.203C328.838,279.927,326.807,280.341,324.81,280.341z"/>
		<path style="fill:#95D600;" d="M329.685,275.468c-5.529,0-10.813-3.177-13.238-8.544l-22.982-50.883    c-3.301-7.308-0.053-15.904,7.254-19.204c7.305-3.3,15.902-0.054,19.203,7.253l22.984,50.884    c3.299,7.307,0.051,15.903-7.254,19.204C333.713,275.053,331.682,275.468,329.685,275.468z"/>
		<path style="opacity:0.3;fill:#222222;" d="M338.031,259.849l-22.984-50.885c-3.301-7.307-11.9-10.553-19.203-7.253    c-0.545,0.245-1.06,0.53-1.56,0.833c-2.389,3.951-2.863,8.971-0.818,13.497l22.982,50.883c2.426,5.367,7.709,8.544,13.238,8.544    c1.996,0,4.027-0.415,5.967-1.29c0.545-0.247,1.061-0.532,1.559-0.834C339.602,269.393,340.074,264.374,338.031,259.849z"/>
		<path style="fill:#95D600;" d="M287.531,320.306c-0.947,0-1.906-0.093-2.869-0.284c-7.859-1.576-12.955-9.225-11.381-17.086    l19.18-95.722c1.574-7.86,9.23-12.948,17.084-11.382c7.861,1.576,12.957,9.225,11.383,17.084l-19.18,95.724    C300.365,315.536,294.305,320.306,287.531,320.306z"/>
		<g>
			<path style="fill:#95D600;" d="M287.514,320.304h-34.156c-8.018,0-14.518-6.5-14.518-14.516c0-8.017,6.5-14.516,14.518-14.516     h34.156c8.018,0,14.516,6.499,14.516,14.516C302.029,313.804,295.531,320.304,287.514,320.304z"/>
		</g>
		<rect x="255.846" y="291.273" style="fill:#218649;" width="15" height="29.033"/>
	</g>
	<circle style="fill:#333E48;" cx="396.382" cy="194.835" r="6.048"/>
	<path style="fill:#218649;" d="M363.346,180.411c-4.143,0-7.5-3.357-7.5-7.5c0-35.176,28.617-63.793,63.791-63.793   c4.143,0,7.5,3.357,7.5,7.5s-3.357,7.5-7.5,7.5c-26.904,0-48.791,21.889-48.791,48.793   C370.846,177.054,367.488,180.411,363.346,180.411z"/>
</g>















</svg>