<?xml version="1.0" encoding="utf-8"?>
<!-- Generator: Adobe Illustrator 19.0.0, SVG Export Plug-In . SVG Version: 6.00 Build 0)  -->
<svg version="1.1" id="Layer_1" xmlns="http://www.w3.org/2000/svg" xmlns:xlink="http://www.w3.org/1999/xlink" x="0px" y="0px"
	 viewBox="0 0 500 500" style="enable-background:new 0 0 500 500;" xml:space="preserve">
<style type="text/css">
	.st0{fill:#EBC039;}
</style>
<path id="XMLID_1_" class="st0" d="M254.6,264.7c0-5.8,4.7-10.5,10.5-10.5c5.8,0,10.5,4.7,10.5,10.5c0,5.8-4.7,10.5-10.5,10.5
	C259.3,275.2,254.6,270.5,254.6,264.7 M109.4,221.9h2.9c7.2,0,11.8,2.5,11.8,10.3c0,7.4-4,10.8-11.9,10.8h-2.9h-3.4v-21.1H109.4z
	 M70,305.9h36.1v-33.2l10.8-0.1c5.3,0,13.8-0.5,18-1.7c15-4,25.8-16.8,25.8-37.6c0-14.4-4.8-25.9-12.6-32.7
	c-7.1-6.2-16.7-8.6-35.6-8.6H70V305.9z M274.7,223.7v9c-4.4-6.9-13.7-11.1-21.5-11.1c-18.4,0-31.5,16.4-31.5,43.5
	c0,26.2,13,42.7,31.2,42.7c8.9,0,17.2-3.2,21.8-11.8v9.9h33.5v-82.3H274.7z M163.1,305.9H197v-30.7c0-4.9,0.5-9,1.4-12.2
	c1.9-6.6,6.8-10,15.1-10.1c2.8,0,5.4,0.5,7.6,1.2v-31.8c-1.2-0.3-2.1-0.4-3.4-0.4c-9.1,0-15.4,1.7-21.5,11.4v-9.7h-33V305.9z
	 M382.4,199.9v23.8h-8.6v28.8h8.6v53.5H416v-53.7h14v-28.5h-14v-23.8H382.4z M326.5,199.9v23.8h-14.3v28.8h14.3v53.5h33.6v-53.7h9.8
	v-28.5h-9.8v-23.8H326.5z"/>
</svg>
