<?xml version="1.0" encoding="utf-8"?>
<!-- Generator: Adobe Illustrator 19.2.1, SVG Export Plug-In . SVG Version: 6.00 Build 0)  -->
<svg version="1.1" id="layer" xmlns="http://www.w3.org/2000/svg" xmlns:xlink="http://www.w3.org/1999/xlink" x="0px" y="0px"
	 viewBox="0 0 652 652" style="enable-background:new 0 0 652 652;" xml:space="preserve">
<style type="text/css">
	.st0{fill:#E25626;}
	.st1{fill:#8D914E;}
</style>
<g>
	<path class="st0" d="M584.3,355.3v19.2h5.7v30.7h-5.7v19.2h36.5v-19.2h-5.9v-49.9H584.3z M614.8,330h-27v17.9h27V330z M543.1,338.8
		v16.4h-12.2v19.2h10.3v33.7c0,3.9,0.1,8.8,3.9,12.5c2.9,2.9,8.8,5.1,16.6,5.1c5.2,0,10-0.9,14.5-1.7v-17.6
		c-1.1,0.4-2.1,0.7-3.6,0.7c-6.4,0-6.7-5.2-6.8-7.8v-24.8h11.1v-19.2h-11.1v-21.6L543.1,338.8z M501.4,338.8v16.4h-8.8v19.2h6.9
		v33.7c0,3.9,0.1,8.8,3.9,12.5c2.9,2.9,8.8,5.1,16.5,5.1c5.2,0,10-0.9,14.6-1.7v-17.6c-1.1,0.4-2.2,0.7-3.6,0.7
		c-6.4,0-6.7-5.2-6.8-7.8v-24.8h14.5v-19.2h-14.5v-21.6L501.4,338.8z M465.4,400.7c-0.4,2.5-1.3,8.7-8.6,8.7
		c-8.7,0-8.8-9.5-8.8-14.8h42.1c0.1-6.1,0.7-22.1-9.5-32c-5-5.1-13.6-8.8-24.3-8.8c-14.2,0-27.1,6.7-31.8,22.6
		c-1.6,5.1-1.9,10-1.9,13.9c0,27,16.1,35.9,34.6,35.9c8.7,0,17.4-2.1,23.6-8c6.1-5.9,7.3-12.4,8.3-17.4H465.4z M448.7,381.4
		c0-2.8,0.3-10.5,8.3-10.5c3.1,0,6.4,1.3,7.7,5.1c0.7,1.9,0.7,3.7,0.7,5.5H448.7z M358,399.1v25.4h18.8l0.4-5.2c2,2.1,6.7,7,17.9,7
		c12.2,0,17.2-5.3,18.4-6.4c4.8-4.9,5.2-11.4,5.2-14.8c0-15.8-9.5-18.8-25.9-23.5c-7.5-2-8.7-2.5-9.8-3.6c-0.7-0.7-1.2-1.6-1.2-2.9
		c0-2.9,3.2-5.1,7-5.1c7.9,0,8.9,7,9.5,10.3h18.8v-24.4h-18.4l-0.4,5.3c-2.3-2.7-6-7.5-17.1-7.5c-17,0-23.9,11.1-23.9,21.1
		c0,16.4,14.7,20.4,22.8,22.7c3.3,0.9,6.4,1.9,9.7,2.9c1.6,0.5,4.3,1.5,4.3,4.5c0,2.5-2.1,5.2-6.8,5.2c-4.8,0.1-10.8-2.9-11.2-10.9
		H358z M346.1,405.2v-26.8c0-4.9-0.5-11.1-5.7-16.3c-5.7-5.9-16.2-8.6-25.3-8.6c-9.6,0-22.1,2.9-27.1,13c-2,3.9-2.1,7.7-2.4,11.2
		H309c0-2.1,0.1-4.8,2-6.7c0.9-1,2.7-1.9,4.5-1.9c0.7,0,5,0,6,5.1c0.3,1.2,0.3,1.7,0.3,7.3c-6.7-0.1-20.4-0.7-29.3,5.3
		c-8.9,6-9.3,15-9.3,18.4c0,13.3,7.7,20.7,20.2,20.7c12,0,17.1-6.8,19.1-9.6l0.5,8h28.8v-19.2H346.1z M321.8,400.4
		c-0.1,1.9-0.3,4.3-1.6,6.3c-1.7,2.8-4.4,3.3-6,3.3c-3.6,0-6-2.5-6-7.2c0-3.1,1.2-7.1,6.1-8.6c2.4-0.8,4.9-0.7,7.5-0.5V400.4z
		 M199,355.3h-28.7v19.2h5.6v30.7h-5.8v19.2h35.3v-19.2h-4.5v-19.6c0-3.7,0-7.2,1.9-9.3c1.1-0.9,2.5-1.6,4-1.6
		c5.3,0,5.3,5.1,5.5,9.1v40.7h29v-19.2h-4.5V384c0.1-2.9,0.1-5.7,2.1-7.6c1.4-1.5,2.9-1.7,4.3-1.7c4.9,0,4.9,4.4,4.9,7.7v42.1h30.7
		v-19.2h-5.7v-33.1c-0.1-4.4-0.3-9.9-4.5-14c-2.4-2.4-6.8-4.4-13.1-4.4c-6.4,0-12.2,2.1-15.9,5.9c-1.9,1.9-2.7,3.5-3.4,5.1
		c-0.8-1.9-1.5-3.6-3.7-5.9c-4.7-4.7-10.3-5.1-13.5-5.1c-11.1,0-16.8,6.1-19.4,10.6L199,355.3z M96.2,389.2c0,6.1,0.3,19.1,9.7,28.4
		c5,4.9,10.4,6.7,16,7.8c3.1,0.5,6.3,0.8,9.5,0.8c5.7,0,12.4-0.9,18-3.5c5.6-2.5,11.4-7.1,14.8-17.2c1.6-5,2.3-10.1,2.3-15.3
		c0-21.9-11.5-36.3-35.3-36.3c-6,0-12.7,0.8-19.1,4.3C96.2,366.5,96.2,383.6,96.2,389.2 M141.2,389.5c0,4.7,0,17.5-9.9,17.5
		c-4.5,0-6.8-2.9-8-5.3c-1.9-3.7-2-8.1-2-11.9c0-4,0-10.9,4-15.1c1.6-1.5,3.5-2.3,6-2.3C141.2,372.4,141.2,385.2,141.2,389.5
		 M21,330h83.3v29.3h-20v-10.2H75v56.2l6.8-0.1v19.2H43.2v-19.2l6.9,0.1v-56.2H41v10.2H21V330z"/>
	<path class="st1" d="M230.2,293.8c-4.7,0-7.1-3-8.3-5.4c-1.9-3.8-2.1-8.3-2.1-12.1c0-4.1,0-11.1,4.2-15.3c1.7-1.5,3.6-2.3,6.3-2.3
		c10.3,0,10.3,13,10.3,17.4C240.5,280.8,240.5,293.8,230.2,293.8 M230.2,239.8c-6.3,0-13.2,0.8-19.9,4.3
		c-16.7,8.5-16.7,25.9-16.7,31.6c0,6.2,0.3,19.4,10.2,28.9c5.2,5,10.9,6.8,16.7,7.9c3.2,0.5,6.5,0.8,9.9,0.8c6,0,12.9-1,18.8-3.5
		c5.8-2.6,11.8-7.2,15.4-17.5c1.7-5,2.4-10.3,2.4-15.6C267,254.5,255,239.8,230.2,239.8"/>
	<path class="st1" d="M301.4,253.5l-0.8-12.2h-28v19.5h6v31.2h-6v19.5h39.5v-19.5h-8.5l0.3-11.4c0-6.5,0.1-10.2,3.5-13.4
		c2.6-2.4,7-4.1,12.2-4.1c2.5,0,4.2,0.3,6.1,0.7v-22.5c-2.2-0.6-3.9-0.8-6.8-0.8C305.2,240.5,302.6,249.7,301.4,253.5"/>
	<path class="st1" d="M184.5,261.5c-0.1-5-0.3-11.5-5.1-16.4c-2.9-2.8-8.2-5.6-16.1-5.6c-12.5,0-17.1,6-20,9.6v-32h-32v18.2h6v56.7
		h-6v19.6h37.5v-19.6h-5.6v-22.6c0-2.3,0.1-4.5,2.1-6.7c2-2,4.4-2.2,5.8-2.2c7.2,0,7.4,5.3,7.5,8.7v42.3h31.9v-19.6h-6V261.5z"/>
	<path class="st1" d="M613.9,292.1v-32c-0.1-4.9-0.3-10.6-5-15.2c-2.6-2.7-7.6-5.4-15.2-5.4c-8.1,0-14.2,3-18.2,6.9
		c-2.2,2-3.2,3.8-4.3,5.7l-0.8-10.7h-28.5v19.5h5.8v31.2h-5.8v19.5h36.4v-19.5h-4.9v-19c0.1-3.9,0.3-7.1,2.8-9.5
		c1.4-1.4,3.2-2.2,5.3-2.2c2.1,0,4.9,0.8,6,3.7c0.4,1.2,0.6,2.8,0.6,5.1v41.4h31.8v-19.5H613.9z"/>
	<path class="st1" d="M501.5,293.8c-4.7,0-7.1-3-8.3-5.4c-2-3.8-2.1-8.3-2.1-12.1c0-4.1,0-11.1,4.2-15.3c1.7-1.5,3.6-2.3,6.3-2.3
		c10.3,0,10.3,13,10.3,17.4C511.8,280.8,511.8,293.8,501.5,293.8 M501.5,239.8c-6.3,0-13.2,0.8-19.9,4.3
		c-16.7,8.5-16.7,25.9-16.7,31.6c0,6.2,0.3,19.4,10.2,28.9c5.1,5,10.8,6.8,16.7,7.9c3.2,0.5,6.5,0.8,9.9,0.8c6,0,12.9-1,18.8-3.5
		c5.8-2.6,11.8-7.2,15.4-17.5c1.7-5,2.4-10.3,2.4-15.6C538.2,254.5,526.2,239.8,501.5,239.8"/>
	<path class="st1" d="M445.7,219.4l-23.6,5.3v16.7h-8.2v19.5h6.3v34.2c0,3.9,0.1,8.9,4,12.7c3.1,3,9.2,5.2,17.3,5.2
		c5.4,0,10.4-0.9,15.2-1.7v-17.9c-1.1,0.4-2.2,0.7-3.7,0.7c-6.7,0-7-5.3-7.1-7.9v-25.2h11.6v-19.5h-11.6V219.4z"/>
	<path class="st1" d="M405.8,260c-0.1-4.9-0.3-10.6-5-15.2c-2.6-2.7-7.6-5.4-15.2-5.4c-8,0-14.2,3-18.2,6.9c-2.2,2-3.2,3.8-4.3,5.7
		l-0.8-10.7h-28.5v19.5h5.8v31.2h-5.8v19.5h36.4v-19.5h-4.9v-19c0.1-3.9,0.3-7.1,2.8-9.5c1.4-1.4,3.2-2.2,5.3-2.2
		c2.1,0,4.9,0.8,6,3.7c0.4,1.2,0.6,2.8,0.6,5.1v41.4h31.8v-19.5h-6V260z"/>
	<polygon class="st1" points="20.7,217.2 104,217.2 104,246.6 84,246.6 84,236.3 74.8,236.3 74.8,292.6 81.6,292.4 81.6,311.6 
		43,311.6 43,292.4 50,292.6 50,236.3 40.8,236.3 40.8,246.6 20.7,246.6 	"/>
</g>
</svg>
